<svg version="1.1" id="wallet_svg__Layer_1" xmlns="http://www.w3.org/2000/svg" x="0" y="0" viewBox="140 180 690 580" xml:space="preserve"><style>.wallet_svg__st3{fill:none;stroke:#474747;stroke-width:6;stroke-linecap:round;stroke-linejoin:round;stroke-miterlimit:10}.wallet_svg__st4{fill:#77ba85}.wallet_svg__st5{fill:#f6f9ea}.wallet_svg__st6{fill:#97cd78}.wallet_svg__st9{fill:#f58870}.wallet_svg__st12{opacity:.3;fill:#474747;stroke:#474747;stroke-width:6;stroke-linecap:round;stroke-linejoin:round;stroke-miterlimit:10}.wallet_svg__st21{fill:#fdb740}.wallet_svg__st22{opacity:.88;fill:#fff3c0}.wallet_svg__st23{fill:#f29e25}</style><g id="wallet_svg__XMLID_1_" opacity=".15"><path id="wallet_svg__XMLID_57_" class="wallet_svg__st3" d="M157.5 387.9h79.4v38.7h-79.4"/><path id="wallet_svg__XMLID_59_" class="wallet_svg__st3" d="M316.2 426.6h-79.3"/><path id="wallet_svg__XMLID_38_" class="wallet_svg__st3" d="M236.9 387.9h30.4"/><path id="wallet_svg__XMLID_42_" class="wallet_svg__st3" d="M197.2 426.6h79.3v38.7h-79.3z"/><path id="wallet_svg__XMLID_52_" class="wallet_svg__st3" d="M169.9 465.5h67v38.7h-25.7"/><path id="wallet_svg__XMLID_54_" class="wallet_svg__st3" d="M236.9 465.5h79.3v38.7h-79.3z"/><path id="wallet_svg__XMLID_81_" class="wallet_svg__st3" d="M580.5 528h79.4v38.6h-79.4"/><path id="wallet_svg__XMLID_80_" class="wallet_svg__st3" d="M739.2 566.6h-79.3"/><path id="wallet_svg__XMLID_79_" class="wallet_svg__st3" d="M659.9 528h30.4"/><path id="wallet_svg__XMLID_78_" class="wallet_svg__st3" d="M620.2 566.6h79.3v38.7h-79.3z"/><path id="wallet_svg__XMLID_77_" class="wallet_svg__st3" d="M592.9 605.5h67v38.7h-25.7"/><path id="wallet_svg__XMLID_76_" class="wallet_svg__st3" d="M711 644.2h-51.1v-38.7H726"/><path id="wallet_svg__XMLID_25_" class="wallet_svg__st3" d="M321.8 243h123.1v99.8H321.8z"/><path id="wallet_svg__XMLID_62_" class="wallet_svg__st3" d="M338.8 319.7l22.5-32.7 23.4 28.9"/><path id="wallet_svg__XMLID_64_" class="wallet_svg__st3" d="M376.1 305.3l31.5-30.5 22.3 44.9"/><path id="wallet_svg__XMLID_63_" class="wallet_svg__st3" d="M367.9 295.1c1.6-4.7 6-8.1 11.2-8.1 4.3 0 8.1 2.3 10.2 5.8"/><path id="wallet_svg__XMLID_24_" class="wallet_svg__st3" d="M765 410.2H589.9c-6.5 0-11.7-5.2-11.7-11.7 0-6.5 5.2-11.7 11.7-11.7H765c6.5 0 11.7 5.2 11.7 11.7 0 6.5-5.2 11.7-11.7 11.7z"/><path id="wallet_svg__XMLID_23_" class="wallet_svg__st3" d="M704.8 386.8h-51.3l-10.6-65.5h72.6z"/><path id="wallet_svg__XMLID_46_" class="wallet_svg__st3" d="M633.2 302.3h92.3v19h-92.3z"/><g id="wallet_svg__XMLID_68_"><path id="wallet_svg__XMLID_83_" class="wallet_svg__st3" d="M691.1 302.3h-18.9c-5.2-18.1-9.7-37.1-9.1-55.7.7-8.9 10.3-16.4 18.6-16.4s17.9 7.5 18.6 16.4c.4 18.6-4.1 37.6-9.2 55.7z"/></g><path id="wallet_svg__XMLID_71_" class="wallet_svg__st3" d="M700.7 244.4l13.1-21.7c2.5-4.2 8.2-5.1 11.9-1.9 3.7 3.2 3.6 8.9-.2 12L700.9 253"/><path id="wallet_svg__XMLID_75_" class="wallet_svg__st3" d="M714 222.5l-6.2-19.4c-1-3 1-6.1 4.1-6.5 3.1-.4 5.8 2 5.8 5.1l-.5 15.7"/></g><g id="wallet_svg__XMLID_20_"><path id="wallet_svg__XMLID_7_" transform="rotate(115.989 540.705 480.08)" class="wallet_svg__st4" d="M390.2 407.4h301.1v145.3H390.2z"/><path id="wallet_svg__XMLID_17_" transform="rotate(115.989 540.705 480.08)" class="wallet_svg__st3" d="M390.2 407.4h301.1v145.3H390.2z"/><path id="wallet_svg__XMLID_16_" class="wallet_svg__st5" d="M620.3 369.9l-41.8-20.4c-7.9 16.3-27.5 23-43.8 15.1l-103 211.2 100.7 49.1 103-211.2c-16.3-7.9-23.1-27.5-15.1-43.8z"/><path id="wallet_svg__XMLID_12_" class="wallet_svg__st3" d="M620.3 369.9l-41.8-20.4c-7.9 16.3-27.5 23-43.8 15.1l-103 211.2 100.7 49.1 103-211.2c-16.3-7.9-23.1-27.5-15.1-43.8z"/><path id="wallet_svg__XMLID_10_" transform="rotate(25.986 540.746 480.153)" class="wallet_svg__st3" d="M484.7 346.2h112V614h-112z"/><circle id="wallet_svg__XMLID_19_" class="wallet_svg__st4" cx="550.7" cy="459" r="34.3"/><circle id="wallet_svg__XMLID_13_" class="wallet_svg__st3" cx="550.7" cy="459" r="34.3"/></g><g id="wallet_svg__XMLID_22_"><path id="wallet_svg__XMLID_33_" transform="rotate(140.653 607.71 508.67)" class="wallet_svg__st6" d="M457.1 436h301.1v145.3H457.1z"/><path id="wallet_svg__XMLID_32_" transform="rotate(140.653 607.71 508.67)" class="wallet_svg__st3" d="M457.1 436h301.1v145.3H457.1z"/><path id="wallet_svg__XMLID_31_" class="wallet_svg__st5" d="M726 441.7l-29.5-35.9c-14 11.5-34.6 9.4-46.1-4.6l-181.7 149 71 86.6 181.7-149c-11.5-13.9-9.4-34.6 4.6-46.1z"/><path id="wallet_svg__XMLID_30_" class="wallet_svg__st3" d="M726 441.7l-29.5-35.9c-14 11.5-34.6 9.4-46.1-4.6l-181.7 149 71 86.6 181.7-149c-11.5-13.9-9.4-34.6 4.6-46.1z"/><path id="wallet_svg__XMLID_29_" transform="rotate(50.653 607.705 508.667)" class="wallet_svg__st3" d="M551.7 374.8h112v267.8h-112z"/><circle id="wallet_svg__XMLID_28_" class="wallet_svg__st6" cx="625.6" cy="493.7" r="34.3"/><circle id="wallet_svg__XMLID_27_" class="wallet_svg__st3" cx="625.6" cy="493.7" r="34.3"/><path id="wallet_svg__XMLID_48_" d="M629.4 457.7c0-17.8-6.7-34-17.6-46.4L445.2 547.9l92.2 112.4 92.1-75.5V457.7z" opacity=".32" fill="#474747" stroke="#474747" stroke-width="6" stroke-linecap="round" stroke-linejoin="round" stroke-miterlimit="10"/></g><path id="wallet_svg__XMLID_9_" opacity=".15" fill="none" stroke="#474747" stroke-width="6" stroke-linecap="round" stroke-linejoin="round" stroke-miterlimit="10" d="M169 748.7h662"/><path id="wallet_svg__XMLID_15_" class="wallet_svg__st9" d="M559.4 748.7h-210c-33.1 0-60-26.9-60-60v-236c0-33.1 26.9-60 60-60h210c33.1 0 60 26.9 60 60v236c0 33.2-26.8 60-60 60z"/><path id="wallet_svg__XMLID_36_" class="wallet_svg__st9" d="M559.4 748.7h-210c-33.1 0-60-26.9-60-60v-236c0-33.1 26.9-60 60-60h210c33.1 0 60 26.9 60 60v236c0 33.2-26.8 60-60 60z"/><path id="wallet_svg__XMLID_43_" d="M559.4 736.6h-210c-33.1 0-60-26.9-60-60v12.1c0 33.1 26.9 60 60 60h210c33.1 0 60-26.9 60-60v-12.1c0 33.1-26.8 60-60 60z" fill="#dd7868"/><path id="wallet_svg__XMLID_40_" d="M559.4 392.7h-210c-33.1 0-60 24.7-60 55.1v12.9c0-30.4 26.9-55.1 60-55.1h210c33.1 0 60 24.7 60 55.1v-12.9c0-30.4-26.8-55.1-60-55.1z" fill="#ffa399"/><path id="wallet_svg__XMLID_34_" class="wallet_svg__st12" d="M489.4 539.2h-54c-9.9 0-18-8.1-18-18V410.7c0-9.9 8.1-18 18-18h72v128.5c0 9.9-8 18-18 18z"/><path id="wallet_svg__XMLID_2_" class="wallet_svg__st3" d="M559.4 748.7h-210c-33.1 0-60-26.9-60-60v-236c0-33.1 26.9-60 60-60h210c33.1 0 60 26.9 60 60v236c0 33.2-26.8 60-60 60z"/><path d="M311.4 687.2v-233c0-21 17-38 38-38h210c21 0 38 17 38 38v232.9c0 21-17 38-38 38h-210c-21 .1-38-16.9-38-37.9z" fill="none" stroke="#474747" stroke-width="4" stroke-linecap="round" stroke-linejoin="round" stroke-dasharray="13.9577,9.9698" id="wallet_svg__XMLID_5_"/><path id="wallet_svg__XMLID_18_" d="M481.4 528.2h-54c-9.9 0-18-8.1-18-18v-122c0-9.9 8.1-18 18-18h54c9.9 0 18 8.1 18 18v122c0 9.9-8 18-18 18z" fill="#f79765"/><path id="wallet_svg__XMLID_45_" d="M481.4 519.9h-54c-9.9 0-18-8.1-18-18v8.3c0 9.9 8.1 18 18 18h54c9.9 0 18-8.1 18-18v-8.3c0 9.9-8 18-18 18z" fill="#e27444"/><path id="wallet_svg__XMLID_44_" d="M481.4 370.2h-54c-9.9 0-18 8.1-18 18v6.8c0-9.9 8.1-18 18-18h54c9.9 0 18 8.1 18 18v-6.8c0-9.9-8-18-18-18z" fill="#ffb797"/><path id="wallet_svg__XMLID_4_" class="wallet_svg__st3" d="M481.4 528.2h-54c-9.9 0-18-8.1-18-18v-122c0-9.9 8.1-18 18-18h54c9.9 0 18 8.1 18 18v122c0 9.9-8 18-18 18z"/><circle id="wallet_svg__XMLID_35_" class="wallet_svg__st12" cx="457.4" cy="479.2" r="23.2"/><path d="M427.4 516.2c-3.3 0-6-2.7-6-6v-122c0-3.3 2.7-6 6-6h54c3.3 0 6 2.7 6 6v122c0 3.3-2.7 6-6 6h-54z" fill="none" stroke="#474747" stroke-width="4" stroke-linecap="round" stroke-linejoin="round" stroke-dasharray="9.8393,11.8071" id="wallet_svg__XMLID_11_"/><circle id="wallet_svg__XMLID_21_" cx="454.4" cy="473.2" r="23.2" fill="#8f6d5d"/><circle id="wallet_svg__XMLID_6_" class="wallet_svg__st3" cx="454.4" cy="473.2" r="23.2"/><path d="M464.2 461.3c.8 3.8-3.7 6.2-10.3 7.6-6.7 1.3-12.7 1.5-13.5-1.7-.8-3.1 3.7-9 10.3-10.9 6.7-1.9 12.7 1.3 13.5 5z" fill="#fffcee" id="wallet_svg__XMLID_37_" opacity=".6"/><g id="wallet_svg__XMLID_65_"><path id="wallet_svg__XMLID_41_" class="wallet_svg__st21" d="M788.3 748.7h-70c-4 0-7.3-3.3-7.3-7.3v-4.9c0-4 3.3-7.3 7.3-7.3h70c4 0 7.3 3.3 7.3 7.3v4.9c0 4.1-3.3 7.3-7.3 7.3z"/><path id="wallet_svg__XMLID_72_" class="wallet_svg__st22" d="M788.3 731.3h-70c-4 0-7.3 3.3-7.3 7.3v2.8c0-4 3.3-7.3 7.3-7.3h70c4 0 7.3 3.3 7.3 7.3v-2.8c0-4-3.3-7.3-7.3-7.3z"/><path id="wallet_svg__XMLID_70_" class="wallet_svg__st23" d="M788.3 746.5h-70c-4 0-7.3-3.3-7.3-7.3v-2.8c0 4 3.3 7.3 7.3 7.3h70c4 0 7.3-3.3 7.3-7.3v2.8c0 4.1-3.3 7.3-7.3 7.3z"/><path id="wallet_svg__XMLID_39_" class="wallet_svg__st3" d="M788.3 748.7h-70c-4 0-7.3-3.3-7.3-7.3v-4.9c0-4 3.3-7.3 7.3-7.3h70c4 0 7.3 3.3 7.3 7.3v4.9c0 4.1-3.3 7.3-7.3 7.3z"/></g><g id="wallet_svg__XMLID_73_"><path id="wallet_svg__XMLID_90_" class="wallet_svg__st21" d="M800 729.3h-70c-4 0-7.3-3.3-7.3-7.3v-4.9c0-4 3.3-7.3 7.3-7.3h70c4 0 7.3 3.3 7.3 7.3v4.9c-.1 4.1-3.3 7.3-7.3 7.3z"/><path id="wallet_svg__XMLID_89_" class="wallet_svg__st22" d="M800 711.9h-70c-4 0-7.3 3.3-7.3 7.3v2.8c0-4 3.3-7.3 7.3-7.3h70c4 0 7.3 3.3 7.3 7.3v-2.8c-.1-4-3.3-7.3-7.3-7.3z"/><path id="wallet_svg__XMLID_88_" class="wallet_svg__st23" d="M800 727.1h-70c-4 0-7.3-3.3-7.3-7.3V717c0 4 3.3 7.3 7.3 7.3h70c4 0 7.3-3.3 7.3-7.3v2.8c-.1 4.1-3.3 7.3-7.3 7.3z"/><path id="wallet_svg__XMLID_74_" class="wallet_svg__st3" d="M800 729.3h-70c-4 0-7.3-3.3-7.3-7.3v-4.9c0-4 3.3-7.3 7.3-7.3h70c4 0 7.3 3.3 7.3 7.3v4.9c-.1 4.1-3.3 7.3-7.3 7.3z"/></g><g id="wallet_svg__XMLID_47_"><path id="wallet_svg__XMLID_56_" class="wallet_svg__st21" d="M788.3 709.9h-70c-4 0-7.3-3.3-7.3-7.3v-4.9c0-4 3.3-7.3 7.3-7.3h70c4 0 7.3 3.3 7.3 7.3v4.9c0 4.1-3.3 7.3-7.3 7.3z"/><path id="wallet_svg__XMLID_53_" class="wallet_svg__st22" d="M788.3 692.6h-70c-4 0-7.3 3.3-7.3 7.3v2.8c0-4 3.3-7.3 7.3-7.3h70c4 0 7.3 3.3 7.3 7.3v-2.8c0-4.1-3.3-7.3-7.3-7.3z"/><path id="wallet_svg__XMLID_50_" class="wallet_svg__st23" d="M788.3 707.8h-70c-4 0-7.3-3.3-7.3-7.3v-2.8c0 4 3.3 7.3 7.3 7.3h70c4 0 7.3-3.3 7.3-7.3v2.8c0 4-3.3 7.3-7.3 7.3z"/><path id="wallet_svg__XMLID_49_" class="wallet_svg__st3" d="M788.3 709.9h-70c-4 0-7.3-3.3-7.3-7.3v-4.9c0-4 3.3-7.3 7.3-7.3h70c4 0 7.3 3.3 7.3 7.3v4.9c0 4.1-3.3 7.3-7.3 7.3z"/></g><g id="wallet_svg__XMLID_58_"><path id="wallet_svg__XMLID_67_" class="wallet_svg__st21" d="M709.1 695.3l-47.8 51.1c-2.7 2.9-7.3 3.1-10.3.3l-3.5-3.3c-2.9-2.7-3.1-7.3-.3-10.3L695 682c2.7-2.9 7.3-3.1 10.3-.3l3.5 3.3c2.8 2.8 3 7.3.3 10.3z"/><path id="wallet_svg__XMLID_66_" class="wallet_svg__st22" d="M696.4 683.4l-47.8 51.1c-2.7 2.9-2.6 7.5.3 10.3l2.1 1.9c-2.9-2.7-3.1-7.3-.3-10.3l47.8-51.1c2.7-2.9 7.3-3.1 10.3-.3l-2.1-1.9c-3-2.8-7.6-2.6-10.3.3z"/><path id="wallet_svg__XMLID_61_" class="wallet_svg__st23" d="M707.5 693.8l-47.8 51.1c-2.7 2.9-7.3 3.1-10.3.3l-2.1-1.9c2.9 2.7 7.5 2.6 10.3-.3l47.8-51.1c2.7-2.9 2.6-7.5-.3-10.3l2.1 1.9c2.8 2.8 3 7.4.3 10.3z"/><path id="wallet_svg__XMLID_60_" class="wallet_svg__st3" d="M709.1 695.3l-47.8 51.1c-2.7 2.9-7.3 3.1-10.3.3l-3.5-3.3c-2.9-2.7-3.1-7.3-.3-10.3L695 682c2.7-2.9 7.3-3.1 10.3-.3l3.5 3.3c2.8 2.8 3 7.3.3 10.3z"/></g></svg>